<svg width="25" height="24" viewBox="0 0 25 24" fill="none" xmlns="http://www.w3.org/2000/svg">
<g id="Icon Placeholder">
<path id="Vector" fill-rule="evenodd" clip-rule="evenodd" d="M12.5 6.54113C9.58236 6.54113 6.90948 8.36814 5.19693 11.351C4.98919 11.7128 4.98919 12.1574 5.19693 12.5193C6.90948 15.5021 9.58235 17.329 12.5 17.329C15.4176 17.329 18.0905 15.502 19.8031 12.5192C20.0108 12.1574 20.0108 11.7127 19.8031 11.3509C18.0905 8.36811 15.4176 6.54113 12.5 6.54113ZM3.86042 10.5836C5.76951 7.25847 8.88944 5 12.5 5C16.1106 5 19.2305 7.25844 21.1396 10.5836C21.6201 11.4206 21.6201 12.4495 21.1396 13.2865C19.2305 16.6117 16.1106 18.8702 12.5 18.8702C8.88944 18.8702 5.76952 16.6117 3.86043 13.2866C3.37986 12.4496 3.37986 11.4206 3.86042 10.5836ZM12.4999 10.3939C11.6488 10.3939 10.9588 11.0839 10.9588 11.9351C10.9588 12.7862 11.6488 13.4762 12.4999 13.4762C13.3511 13.4762 14.0411 12.7862 14.0411 11.9351C14.0411 11.0839 13.3511 10.3939 12.4999 10.3939ZM9.41768 11.9351C9.41768 10.2328 10.7977 8.85281 12.4999 8.85281C14.2022 8.85281 15.5822 10.2328 15.5822 11.9351C15.5822 13.6373 14.2022 15.0173 12.4999 15.0173C10.7977 15.0173 9.41768 13.6373 9.41768 11.9351Z" fill="#14142B"/>
</g>
</svg>
